<svg width="21" height="21" viewBox="0 0 21 21" fill="none" xmlns="http://www.w3.org/2000/svg">
<path opacity="0.3" d="M0.5 10.8782H20.5V19.8782C20.5 20.1434 20.3946 20.3977 20.2071 20.5853C20.0196 20.7728 19.7652 20.8782 19.5 20.8782H1.5C1.23478 20.8782 0.98043 20.7728 0.792893 20.5853C0.605357 20.3977 0.5 20.1434 0.5 19.8782V10.8782ZM15.5 2.87817H19.5C19.7652 2.87817 20.0196 2.98353 20.2071 3.17107C20.3946 3.3586 20.5 3.61296 20.5 3.87817V8.87817H0.5V3.87817C0.5 3.61296 0.605357 3.3586 0.792893 3.17107C0.98043 2.98353 1.23478 2.87817 1.5 2.87817H5.5V0.878174H7.5V2.87817H13.5V0.878174H15.5V2.87817Z" fill="#343432"/>
</svg>
