<svg width="18" height="22" viewBox="0 0 18 22" fill="none" xmlns="http://www.w3.org/2000/svg">
<path opacity="0.3" d="M15.364 15.3781L9 21.7421L2.636 15.3781C1.37734 14.1195 0.520187 12.5158 0.172928 10.77C-0.17433 9.02417 0.00390685 7.21457 0.685099 5.57004C1.36629 3.92552 2.51984 2.51991 3.99988 1.53099C5.47992 0.542059 7.21998 0.0142212 9 0.0142212C10.78 0.0142212 12.5201 0.542059 14.0001 1.53099C15.4802 2.51991 16.6337 3.92552 17.3149 5.57004C17.9961 7.21457 18.1743 9.02417 17.8271 10.77C17.4798 12.5158 16.6227 14.1195 15.364 15.3781ZM9 11.0141C9.53044 11.0141 10.0391 10.8034 10.4142 10.4284C10.7893 10.0533 11 9.54458 11 9.01414C11 8.48371 10.7893 7.975 10.4142 7.59993C10.0391 7.22486 9.53044 7.01414 9 7.01414C8.46957 7.01414 7.96086 7.22486 7.58579 7.59993C7.21072 7.975 7 8.48371 7 9.01414C7 9.54458 7.21072 10.0533 7.58579 10.4284C7.96086 10.8034 8.46957 11.0141 9 11.0141Z" fill="#343432"/>
</svg>
