<svg width="23" height="23" viewBox="0 0 23 23" fill="none" xmlns="http://www.w3.org/2000/svg">
<path d="M10.2343 0.767059C15.669 0.767059 20.0798 5.17781 20.0798 10.6125C20.0798 16.0472 15.669 20.4579 10.2343 20.4579C4.79967 20.4579 0.388916 16.0472 0.388916 10.6125C0.388916 5.17781 4.79967 0.767059 10.2343 0.767059ZM10.2343 18.27C14.4646 18.27 17.8919 14.8427 17.8919 10.6125C17.8919 6.38114 14.4646 2.95493 10.2343 2.95493C6.003 2.95493 2.57679 6.38114 2.57679 10.6125C2.57679 14.8427 6.003 18.27 10.2343 18.27ZM19.5164 18.3477L22.6111 21.4414L21.0632 22.9893L17.9696 19.8945L19.5164 18.3477Z" fill="white"/>
</svg>
